<?xml version="1.0" encoding="UTF-8"?>
<svg id="Layer_2" data-name="Layer 2" xmlns="http://www.w3.org/2000/svg" xmlns:xlink="http://www.w3.org/1999/xlink" viewBox="0 0 1483.31 1483.31">
  <defs>
    <style>
      .cls-1 {
        fill: url(#linear-gradient-8);
      }

      .cls-2 {
        fill: url(#linear-gradient-7);
      }

      .cls-3 {
        fill: url(#linear-gradient-5);
      }

      .cls-4 {
        fill: url(#linear-gradient-6);
      }

      .cls-5 {
        fill: url(#linear-gradient-9);
      }

      .cls-6 {
        fill: url(#linear-gradient-4);
      }

      .cls-7 {
        fill: url(#linear-gradient-3);
      }

      .cls-8 {
        fill: url(#linear-gradient-2);
      }

      .cls-9 {
        fill: url(#linear-gradient);
      }

      .cls-10 {
        fill: url(#linear-gradient-10);
      }

      .cls-11 {
        fill: url(#linear-gradient-11);
      }

      .cls-12 {
        fill: url(#linear-gradient-12);
      }

      .cls-13 {
        fill: url(#linear-gradient-13);
      }

      .cls-14 {
        fill: url(#linear-gradient-19);
      }

      .cls-15 {
        fill: url(#linear-gradient-14);
      }

      .cls-16 {
        fill: url(#linear-gradient-21);
      }

      .cls-17 {
        fill: url(#linear-gradient-20);
      }

      .cls-18 {
        fill: url(#linear-gradient-15);
      }

      .cls-19 {
        fill: url(#linear-gradient-16);
      }

      .cls-20 {
        fill: url(#linear-gradient-17);
      }

      .cls-21 {
        fill: url(#linear-gradient-18);
      }
    </style>
    <linearGradient id="linear-gradient" x1="117.17" y1="993.07" x2="1242.24" y2="993.07" gradientUnits="userSpaceOnUse">
      <stop offset="0" stop-color="#002b7c"/>
      <stop offset=".57" stop-color="#005bc3"/>
      <stop offset="1" stop-color="#007df6"/>
    </linearGradient>
    <linearGradient id="linear-gradient-2" x1="284.77" y1="1040.03" x2="1178.18" y2="1040.03" gradientUnits="userSpaceOnUse">
      <stop offset="0" stop-color="#002b7c"/>
      <stop offset="1" stop-color="#007df6"/>
    </linearGradient>
    <linearGradient id="linear-gradient-3" x1="307.22" y1="1035.4" x2="1171.96" y2="1035.4" gradientUnits="userSpaceOnUse">
      <stop offset="0" stop-color="#002b7c"/>
      <stop offset=".26" stop-color="#003d97"/>
      <stop offset=".82" stop-color="#006cde"/>
      <stop offset="1" stop-color="#007df6"/>
    </linearGradient>
    <linearGradient id="linear-gradient-4" x1="292.79" y1="542.28" x2="1181.27" y2="542.28" gradientUnits="userSpaceOnUse">
      <stop offset="0" stop-color="#0075ea"/>
      <stop offset="1" stop-color="#0075ea"/>
    </linearGradient>
    <linearGradient id="linear-gradient-5" x1="302.56" y1="443.03" x2="1170.66" y2="443.03" gradientUnits="userSpaceOnUse">
      <stop offset="0" stop-color="#002b7c"/>
      <stop offset="1" stop-color="#007df6"/>
    </linearGradient>
    <linearGradient id="linear-gradient-6" x1="290.64" y1="381.03" x2="1181.23" y2="381.03" gradientUnits="userSpaceOnUse">
      <stop offset="0" stop-color="#002b7c"/>
      <stop offset="1" stop-color="#007df6"/>
    </linearGradient>
    <linearGradient id="linear-gradient-7" x1="288.33" y1="779.58" x2="721.77" y2="746.78" gradientUnits="userSpaceOnUse">
      <stop offset="0" stop-color="#002b7c"/>
      <stop offset="0" stop-color="#25177d"/>
      <stop offset=".42" stop-color="#152a9d"/>
      <stop offset=".43" stop-color="#152b9e"/>
      <stop offset=".98" stop-color="#0043c7"/>
      <stop offset=".98" stop-color="#0043c7"/>
      <stop offset=".99" stop-color="#370e7d"/>
      <stop offset="1" stop-color="#0043c7"/>
    </linearGradient>
    <linearGradient id="linear-gradient-8" x1="320.03" y1="696.04" x2="718.48" y2="696.04" gradientUnits="userSpaceOnUse">
      <stop offset="0" stop-color="#002b7c"/>
      <stop offset="1" stop-color="#0043c7"/>
    </linearGradient>
    <linearGradient id="linear-gradient-9" x1="320.03" y1="827.38" x2="713.27" y2="827.38" gradientUnits="userSpaceOnUse">
      <stop offset="0" stop-color="#002b7c"/>
      <stop offset="1" stop-color="#0043c7"/>
    </linearGradient>
    <linearGradient id="linear-gradient-10" x1="284.68" y1="761.65" x2="710.35" y2="761.65" gradientUnits="userSpaceOnUse">
      <stop offset="0" stop-color="#002b7c"/>
      <stop offset="1" stop-color="#0043c7"/>
    </linearGradient>
    <linearGradient id="linear-gradient-11" x1="574.9" y1="762.95" x2="715" y2="762.95" gradientUnits="userSpaceOnUse">
      <stop offset="0" stop-color="#002b7c"/>
      <stop offset="1" stop-color="#0043c7"/>
    </linearGradient>
    <linearGradient id="linear-gradient-12" x1="349.16" y1="890.9" x2="714.82" y2="890.9" gradientUnits="userSpaceOnUse">
      <stop offset="0" stop-color="#002b7c"/>
      <stop offset="1" stop-color="#0043c7"/>
    </linearGradient>
    <linearGradient id="linear-gradient-13" x1="349.16" y1="632.41" x2="714.83" y2="632.41" gradientUnits="userSpaceOnUse">
      <stop offset="0" stop-color="#002b7c"/>
      <stop offset="1" stop-color="#0043c7"/>
    </linearGradient>
    <linearGradient id="linear-gradient-14" x1="284.89" y1="457.53" x2="1181.88" y2="457.53" gradientUnits="userSpaceOnUse">
      <stop offset="0" stop-color="#002b7c"/>
      <stop offset="1" stop-color="#007df6"/>
    </linearGradient>
    <linearGradient id="linear-gradient-15" x1="326.97" y1="538.53" x2="1180.72" y2="538.53" gradientUnits="userSpaceOnUse">
      <stop offset="0" stop-color="#002b7c"/>
      <stop offset="1" stop-color="#007df6"/>
    </linearGradient>
    <linearGradient id="linear-gradient-16" x1="284.05" y1="998.09" x2="1166.65" y2="998.09" gradientUnits="userSpaceOnUse">
      <stop offset="0" stop-color="#002b7c"/>
      <stop offset="1" stop-color="#007df6"/>
    </linearGradient>
    <linearGradient id="linear-gradient-17" x1="281.98" y1="1151.84" x2="1152.59" y2="1151.84" gradientUnits="userSpaceOnUse">
      <stop offset="0" stop-color="#002b7c"/>
      <stop offset="1" stop-color="#007df6"/>
    </linearGradient>
    <linearGradient id="linear-gradient-18" x1="276.67" y1="1151.84" x2="1161.45" y2="1151.84" gradientUnits="userSpaceOnUse">
      <stop offset="0" stop-color="#002b7c"/>
      <stop offset="1" stop-color="#007df6"/>
    </linearGradient>
    <linearGradient id="linear-gradient-19" x1="707.9" y1="753.81" x2="1171.67" y2="753.81" gradientUnits="userSpaceOnUse">
      <stop offset="0" stop-color="#0041c3"/>
      <stop offset="1" stop-color="#007df6"/>
    </linearGradient>
    <linearGradient id="linear-gradient-20" x1="701.99" y1="845.92" x2="1169.13" y2="845.92" gradientUnits="userSpaceOnUse">
      <stop offset="0" stop-color="#0042c4"/>
      <stop offset="1" stop-color="#007df6"/>
    </linearGradient>
    <linearGradient id="linear-gradient-21" x1="703.6" y1="667.57" x2="1171.12" y2="667.57" gradientUnits="userSpaceOnUse">
      <stop offset="0" stop-color="#0041c1"/>
      <stop offset="1" stop-color="#007df6"/>
    </linearGradient>
  </defs>
  <path class="cls-9" d="M932.51,888.94c-57.51,0-104.13,46.62-104.13,104.13s46.62,104.13,104.13,104.13,104.13-46.62,104.13-104.13-46.62-104.13-104.13-104.13ZM932.51,1074.54c-44.99,0-81.47-36.47-81.47-81.47s36.47-81.47,81.47-81.47,81.47,36.47,81.47,81.47-36.47,81.47-81.47,81.47Z"/>
  <path class="cls-8" d="M811.15,1116.78l-12,35h-192c-4.16.01-39.22-.75-66-27.53-30.8-30.8-27.08-62.21-27.08-62.21v-133.76h36v134s-2.15,18.51,16.16,36.81c17.69,17.69,40.92,16.69,40.92,16.69l204,1Z"/>
  <path class="cls-7" d="M1096.02,1113.74c-12.84,18.86-34.8,28.78-34.8,28.78l-10.87-32.85s8.91-6.03,15.34-15.94c6.36-9.78,6.46-19.96,6.4-22.17-.01-.29-.02-.44-.02-.44v-142.83h36v142.83s1.32,22.98-12.05,42.62Z"/>
  <rect class="cls-6" x="1072.08" y="480.29" width="36" height="124"/>
  <path class="cls-3" d="M903.15,281.78v36h-296s-23.39-1-41.08,16.69-16.22,34.62-16.02,36.81c0,.15.02.23.02.23v232.77h-36v-232.77s-3.88-31.4,26.92-62.2c28.51-28.51,66.16-27.53,66.16-27.53h296Z"/>
  <path class="cls-4" d="M936.15,480.29h171.93s-204.92-198.5-204.92-198.5v165.51c0,18.22,14.77,32.99,32.99,32.99Z"/>
  <circle class="cls-2" cx="525.19" cy="761.65" r="34.5"/>
  <path class="cls-1" d="M483.59,733.13c-6.92,6.92-3.96,7.21-11.42-.25l-45.2-44.71h-54.04c-3.25,11.24-13.62,19.46-25.92,19.46-14.9,0-26.98-12.08-26.98-26.98s12.08-26.98,26.98-26.98c11.76,0,21.76,7.52,25.45,18.01.12-.01.24-.01.36-.01h57c.13,0,.26,0,.38.01h.04c2.16-.05,4.32.75,5.97,2.4l47.38,47.38c6.95,6.95,6.65,5.02,0,11.67Z"/>
  <path class="cls-5" d="M483.59,790.18c-6.63-6.63-4.24-6.93-11.42.25l-45.2,44.71h-54.04c-3.25-11.24-13.62-19.46-25.92-19.46-14.9,0-26.98,12.08-26.98,26.98s12.08,26.98,26.98,26.98c11.76,0,21.76-7.52,25.45-18.01.12.01.24.01.36.01h57c.13,0,.26,0,.38-.01h.04c2.16.05,4.32-.75,5.97-2.4l47.38-47.38c6.95-6.95,6.65-5.02,0-11.67Z"/>
  <path class="cls-10" d="M473.77,755.15v16h-126.03c-4.05,13.17-16.32,22.74-30.82,22.74-17.8,0-32.24-14.43-32.24-32.24s14.44-32.24,32.24-32.24c15.58,0,28.58,11.05,31.58,25.74h125.27Z"/>
  <path class="cls-11" d="M681.81,729.75c-15.79,0-28.99,11.01-32.36,25.78h-74.55v14.5h74.47c3.23,14.93,16.53,26.12,32.44,26.12,18.33,0,33.19-14.86,33.19-33.19s-14.86-33.21-33.19-33.21ZM681.81,782.54c-10.37,0-18.77-8.41-18.77-18.76s8.4-18.78,18.77-18.78,18.76,8.41,18.76,18.78-8.4,18.76-18.76,18.76Z"/>
  <path class="cls-12" d="M681.81,823.27c-15.84,0-29.07,11.14-32.27,26.01h-61.39c-2.36,0-4.55-1.2-5.82-3.19l-26.81-41.34c-2.9-4.55-3.27.34-10.36,3.42-7.49,3.25-11.13-.18-10.88,2.96-.53,2.19-.91,20.33-1.3,30.43-.16,4.07-2.37,7.77-5.88,9.84l-75.37,44.36-41.5,24.83c-6.71-7.51-16.63-12.1-27.6-11.64-17.79.75-32.39,15.11-33.41,32.88-1.19,20.68,15.59,37.76,36.19,37.03,18.45-.65,33.41-15.9,33.71-34.36.05-3.23-.33-6.36-1.1-9.34h0s44.62-26.71,44.62-26.71c.11-.07.22-.13.32-.2l.04-.02c1.6-.91,60.83-37.11,78.78-49.27,3.21-2.17,5.16-5.76,5.27-9.62,0,0,.7-18.11,1.02-30.95l26.78,42.04c.95,1.5,2.5,2.4,4.14,2.58h.01c.54.17,1.13.27,1.73.27h68.8c3.37,15.67,17.87,27.2,34.83,25.92,16.17-1.22,29.23-14.35,30.37-30.53,1.36-19.31-13.9-35.4-32.93-35.4ZM384.15,963.85c-11.01,0-19.94-8.93-19.94-19.94s8.93-19.94,19.94-19.94,19.94,8.93,19.94,19.94-8.93,19.94-19.94,19.94ZM681.81,875.05c-10.37,0-18.77-8.4-18.77-18.77s8.4-18.76,18.77-18.76,18.76,8.4,18.76,18.76-8.4,18.77-18.76,18.77Z"/>
  <path class="cls-13" d="M714.74,664.63c-1.15-16.18-14.2-29.32-30.37-30.53-16.96-1.28-31.46,10.25-34.83,25.92h-68.8c-.6,0-1.19.1-1.73.27h-.01c-1.64.18-3.19,1.08-4.14,2.58l-26.78,42.04c-.32-12.84-1.02-30.95-1.02-30.95-.11-3.86-2.06-7.45-5.27-9.62-17.95-12.16-77.18-48.36-78.78-49.27l-.04-.02c-.1-.07-.21-.13-.32-.2l-44.62-26.7h0c.77-2.99,1.15-6.12,1.1-9.35-.31-18.46-15.27-33.72-33.72-34.37-20.6-.72-37.38,16.35-36.19,37.03,1.03,17.78,15.62,32.14,33.41,32.89,10.97.46,20.89-4.13,27.6-11.64l41.5,24.83,75.37,44.36c3.51,2.07,5.72,5.77,5.88,9.84.39,10.1.77,28.24,1.3,30.43-.25,3.14,3.39-.29,10.88,2.96,7.09,3.08,7.46,7.97,10.36,3.42l26.81-41.34c1.26-1.99,3.46-3.19,5.82-3.19h61.39c3.2,14.87,16.43,26.01,32.27,26.01,19.02,0,34.29-16.09,32.93-35.4ZM384.15,599.34c-11.01,0-19.94-8.93-19.94-19.94s8.93-19.94,19.94-19.94,19.94,8.93,19.94,19.94-8.93,19.94-19.94,19.94ZM681.81,685.78c-10.37,0-18.77-8.4-18.77-18.76s8.4-18.77,18.77-18.77,18.76,8.4,18.76,18.77-8.4,18.76-18.76,18.76Z"/>
  <rect class="cls-15" x="623.39" y="446.03" width="208.5" height="23" rx="11.5" ry="11.5"/>
  <rect class="cls-18" x="623.39" y="527.03" width="287" height="23" rx="11.5" ry="11.5"/>
  <path class="cls-19" d="M983.35,974.14l-63.41,63.41c-.09.09-.18.17-.27.25-1.41,1.14-3.5,1.06-4.81-.25l-11.09-11.09-24.12-24.12c-1.4-1.4-1.4-3.68,0-5.08l10.42-10.42c1.4-1.4,3.68-1.4,5.08,0l22.25,22.25,50.45-50.45c1.41-1.41,3.68-1.41,5.09,0l10.41,10.41c1.41,1.41,1.41,3.68,0,5.09Z"/>
  <path class="cls-20" d="M927.48,1115.62l-35.29,97.52c-1.17,3.22-4.08,5.31-7.3,5.58l-23.04-42.99-46.27,17.45c-1.85-2.24-2.49-5.36-1.43-8.29l36.17-99.92c20.69,18.29,47.6,29.7,77.16,30.65Z"/>
  <path class="cls-21" d="M934.02,1115.62l35.29,97.52c1.17,3.22,4.08,5.31,7.3,5.58l23.04-42.99,46.27,17.45c1.85-2.24,2.49-5.36,1.43-8.29l-36.17-99.92c-20.69,18.29-47.6,29.7-77.16,30.65Z"/>
  <path class="cls-14" d="M710.74,755.22c28.73,20.23,68.17,16.78,101.22,4.86,33.05-11.92,63.2-31.25,96.84-41.41,33.63-10.16,68.4-2.32,99.26,15.3,46.49,26.55,102.65,44.42,148.26,16.38,9.45-5.81,21.07,11.48,12.12,18.03-47.96,35.13-111.81,17.26-163.36-12.35-33.83-19.44-66.47-24.9-100.09-13.56-33.63,11.34-63.6,31.8-97.23,43.14-66.91,22.55-102.74-10.73-103.25-11.07"/>
  <path class="cls-17" d="M708.23,847.46c28.73,21.95,68.17,18.21,101.22,5.28,33.05-12.93,63.2-33.91,96.84-44.94,33.63-11.03,68.4-2.52,99.26,16.6,46.49,28.81,102.65,48.2,148.26,17.77,9.45-6.3,21.07,12.46,12.12,19.57-47.96,38.12-111.81,18.73-163.36-13.41-33.83-21.09-66.47-27.02-100.09-14.71-33.63,12.31-63.6,34.51-97.23,46.81-66.91,24.47-102.74-11.64-103.25-12.01"/>
  <g id="Layer_3" data-name="Layer 3">
    <path class="cls-16" d="M706.37,670.8c0-6.9-2.36-11.76,4.75-8.5,14.94,6.85,31.04,19.5,62.09,19.5,33.45,0,106.75-48.78,166.5-50.43,52.9-1.46,108.83,48.08,150.69,50.1s48.32-15.39,68.47-17.66c4.39-.5,12.25,3.1,12.25,10h0c0,6.9-11.25,13.75-11.25,13.75,0,0-25.78,17.52-69.28,16.15s-97.58-48.72-150.69-46.95c-59.85,1.99-132.38,47.05-165.96,47.05-30.32-.24-56.34-14.4-68.82-20-4.03-1.81,1.25-13,1.25-13Z"/>
  </g>
</svg>